<svg xmlns="http://www.w3.org/2000/svg" version="1.1" xmlns:xlink="http://www.w3.org/1999/xlink" xmlns:svgjs="http://svgjs.dev/svgjs" width="1500" height="993" viewBox="0 0 1500 993"><g transform="matrix(1,0,0,1,0.7756851043781126,0.40202429149798036)"><svg viewBox="0 0 373 247" data-background-color="#fafafa" preserveAspectRatio="xMidYMid meet" height="993" width="1500" xmlns="http://www.w3.org/2000/svg" xmlns:xlink="http://www.w3.org/1999/xlink"><g id="tight-bounds" transform="matrix(1,0,0,1,-0.1928870292886984,-0.09999999999999432)"><svg viewBox="0 0 373.3857740585774 247.2" height="247.2" width="373.3857740585774"><g><svg viewBox="0 0 373.3857740585774 247.2" height="247.2" width="373.3857740585774"><g><svg viewBox="0 0 373.3857740585774 247.2" height="247.2" width="373.3857740585774"><g id="textblocktransform"><svg viewBox="0 0 373.3857740585774 247.2" height="247.2" width="373.3857740585774" id="textblock"><g><svg viewBox="0 0 373.3857740585774 247.2" height="247.2" width="373.3857740585774"><g transform="matrix(1,0,0,1,0,0)"><svg width="373.3857740585774" viewBox="3.44 -39.5 79.32000000000001 52.51" height="247.2" data-palette-color="#130912"><path d="M33.42-14.16L33.42-14.16Q33.42-11.08 32.5-8.4 31.57-5.71 29.81-3.72 28.05-1.73 25.51-0.59 22.97 0.56 19.75 0.56L19.75 0.56Q17.29 0.56 15.22-0.4 13.16-1.37 11.69-3.37L11.69-3.37 11.69 13.01 3.44 13.01 3.44-28.2 6.62-28.2 10.28-22.07Q10.82-23.61 11.76-24.87 12.7-26.12 13.93-27.01 15.16-27.91 16.64-28.39 18.12-28.88 19.75-28.88L19.75-28.88Q22.97-28.88 25.51-27.73 28.05-26.59 29.81-24.6 31.57-22.61 32.5-19.92 33.42-17.24 33.42-14.16ZM25.05-14.16L25.05-14.16Q25.05-15.23 24.94-16.44 24.83-17.65 24.56-18.85 24.29-20.04 23.82-21.14 23.34-22.24 22.61-23.08 21.88-23.93 20.84-24.43 19.8-24.93 18.43-24.93L18.43-24.93Q17.02-24.93 15.98-24.44 14.94-23.95 14.2-23.11 13.45-22.27 12.98-21.18 12.5-20.09 12.23-18.9 11.96-17.7 11.85-16.48 11.74-15.26 11.74-14.16L11.74-14.16Q11.74-13.18 11.89-12 12.04-10.82 12.35-9.62 12.67-8.42 13.18-7.3 13.7-6.18 14.44-5.3 15.19-4.42 16.17-3.89 17.16-3.37 18.43-3.37L18.43-3.37Q19.82-3.37 20.85-3.87 21.88-4.37 22.61-5.21 23.34-6.05 23.82-7.15 24.29-8.25 24.56-9.45 24.83-10.64 24.94-11.87 25.05-13.09 25.05-14.16ZM47.39-35.01L47.39-35.01Q47.39-34.08 47.03-33.25 46.68-32.42 46.07-31.81 45.46-31.2 44.63-30.85 43.8-30.49 42.87-30.49L42.87-30.49Q41.94-30.49 41.12-30.85 40.31-31.2 39.69-31.81 39.08-32.42 38.73-33.25 38.38-34.08 38.38-35.01L38.38-35.01Q38.38-35.94 38.73-36.76 39.08-37.57 39.69-38.18 40.31-38.79 41.12-39.15 41.94-39.5 42.87-39.5L42.87-39.5Q43.8-39.5 44.63-39.15 45.46-38.79 46.07-38.18 46.68-37.57 47.03-36.76 47.39-35.94 47.39-35.01ZM47.02-28.17L47.02 0 38.74 0 38.74-28.17 47.02-28.17ZM82.76-16.16L82.76-16.16Q82.76-13.31 82.06-10.21 81.37-7.1 80.12-4.13 78.88-1.15 77.14 1.48 75.41 4.1 73.33 6.01L73.33 6.01 70.23 4.32Q70.89 3.1 71.48 1.59 72.07 0.07 72.54-1.62 73.02-3.32 73.4-5.13 73.77-6.93 74.03-8.7 74.29-10.47 74.42-12.15 74.56-13.82 74.56-15.26L74.56-15.26Q74.56-16.21 74.48-17.3 74.41-18.38 74.18-19.47 73.95-20.56 73.55-21.56 73.16-22.56 72.52-23.32 71.87-24.07 70.95-24.54 70.04-25 68.79-25L68.79-25Q67.57-25 66.62-24.45 65.67-23.9 64.94-23.01 64.2-22.12 63.68-20.97 63.15-19.82 62.82-18.62 62.5-17.41 62.35-16.24 62.2-15.06 62.2-14.14L62.2-14.14 62.2 0 53.93 0 53.93-28.2 57.1-28.2 60.88-21.63Q61.57-23.27 62.59-24.61 63.62-25.95 64.91-26.9 66.21-27.86 67.78-28.37 69.36-28.88 71.19-28.88L71.19-28.88Q74.12-28.88 76.29-27.93 78.46-26.98 79.9-25.28 81.34-23.58 82.05-21.25 82.76-18.92 82.76-16.16Z" opacity="1" transform="matrix(1,0,0,1,0,0)" fill="#130912" class="wordmark-text-0" data-fill-palette-color="primary" id="text-0"></path></svg></g></svg></g></svg></g></svg></g></svg></g><defs></defs></svg><rect width="373.3857740585774" height="247.2" fill="none" stroke="none" visibility="hidden"></rect></g></svg></g></svg>